<svg xmlns="http://www.w3.org/2000/svg" viewBox="0 0 152.68 184.78"><path d="M713.89,283.28s-57.38-6.94-61.8,43.2c0,0-1.26,25.54,15.45,42.88,0,0,14.82,16.71,10.72,39.1,0,0-2.84,19.86,8.83,25.54,0,0,14.82,6,19.86-13.25,0,0,6.31-20.81,17-20.49,0,0,8.83,1.26,1.89,21.44,0,0-5,19.86,12,20.49,0,0,17.76,1.39,19.65-30.77,0,0,1.33-20.62-1.33-34.81,0,0-3.55-15.52,13.21-43.2,0,0,11.62-21.31-8.83-44.46,0,0-20.5-20.49-45.09-6.3l-15.14,10.09h6.94s15.45-11.35,28.06-10.41c0,0,13.53.5,22.84,14,0,0,10.2,16.85,2.07,34.85,0,0-12.93,20.79-10.71,44.07,0,0,3.88,28.35,2,35.91,0,0-2.31,23.12-14.3,25.33,0,0-7.56,0-4.73-14.82,0,0,7.89-23.65-7.56-27.43,0,0-13.56-2.53-18.92,14.5,0,0-7.57,25.86-16.71,19.24,0,0-7.57-6.63-4.42-24.91,0,0,3.16-21.76-12.29-37.21,0,0-17.35-19.87-12.93-41.31,0,0,.63-35.63,48.87-37.52Z" transform="translate(-619.99 -257.42)" style="fill:#789c4a"/><path d="M691.82,323c1.89,11.66-5.36,12.61-5.36,12.61-6.94,3.47-10.72-5.36-10.72-5.36-5-7.88.31-13.87.31-13.87C690.87,308.5,691.82,323,691.82,323Zm-13.24-3.72a11.55,11.55,0,0,0,1.81,10.27s3.22,6.14,6.31,2.88c0,0,3.61-1.42,1-9.84C687.68,322.6,685.12,312,678.58,319.29Z" transform="translate(-619.99 -257.42)" style="fill:#789c4a"/><path d="M713.37,314.09c-.63,11.8-7.92,11.18-7.92,11.18-7.51,1.91-9.33-7.52-9.33-7.52-3.26-8.77,3.26-13.49,3.26-13.49C715.53,299.71,713.37,314.09,713.37,314.09Zm-12.14-6.45a11.55,11.55,0,0,0-.42,10.42s1.84,6.68,5.55,4.16c0,0,3.84-.62,3-9.41C709.41,312.81,709.17,301.9,701.23,307.64Z" transform="translate(-619.99 -257.42)" style="fill:#789c4a"/><path d="M733.14,314.5c-3.39,10.62-9.19,8.26-9.19,8.26-6.59-.11-5.78-9.17-5.78-9.17-.52-8.82,5.94-11.51,5.94-11.51C738.4,301.92,733.14,314.5,733.14,314.5Zm-8.34-8.88a11.84,11.84,0,0,0-2.88,9.41s-.12,6.55,3.52,5.16c0,0,3.28.39,4.78-7.83C730.22,312.36,732.68,302.35,724.8,305.62Z" transform="translate(-619.99 -257.42)" style="fill:#789c4a"/><path d="M749.11,325.15c-6.23,8.22-10.38,4-10.38,4-5.54-2.49-2-10.26-2-10.26,2.36-8,8.67-8.08,8.67-8.08C757.54,315.86,749.11,325.15,749.11,325.15Zm-4.24-10.93s-4,1.7-5.41,7.33c0,0-2.18,5.78,1.34,5.87,0,0,2.65,1.53,6.52-5.24C747.32,322.18,752.57,314.16,744.87,314.22Z" transform="translate(-619.99 -257.42)" style="fill:#789c4a"/><path d="M718.62,329c17,2.52,19.87,21.44,19.87,21.44,2.83,20.18-10.41,24.91-10.41,24.91-7.25,3.78-17.34-6.62-17.34-6.62-5,6.93-13.24,6-13.24,6-10.09-.63-9.78-13.88-9.78-13.88.32-20.81,12.61-27.43,12.61-27.43C706.64,327.74,718.62,329,718.62,329Zm-15.36,8.26s-9.92,5.17-10.18,21.4c0,0-.25,10.33,7.89,10.82,0,0,6.62.74,10.69-4.67,0,0,8.15,8.11,14,5.16,0,0,10.7-3.69,8.4-19.43,0,0-2.29-14.75-16-16.72C718,333.82,708.36,332.84,703.26,337.26Z" transform="translate(-619.99 -257.42)" style="fill:#789c4a"/><polygon points="50.07 32.79 11.29 64.01 51.02 38.15 59.53 49.19 54.48 35.63 95.79 0 52.28 31.53 45.03 21.13 50.07 32.79" style="fill:#789c4a"/><path d="M663.57,276.4a18.67,18.67,0,0,1-5.2-8.95S662.31,269.9,663.57,276.4Z" transform="translate(-619.99 -257.42)" style="fill:#789c4a"/><path d="M620,328.94s3.71-4.75,9.33-5.56A12.05,12.05,0,0,1,620,328.94Z" transform="translate(-619.99 -257.42)" style="fill:#789c4a"/></svg>