<svg xmlns="http://www.w3.org/2000/svg" viewBox="0 0 171.19 149.88"><path d="M787.47,124.58l-3.05.13a94.05,94.05,0,0,0-18,3.09l.39-6c4.71-1.44,9.74-2.77,15.06-3.93" transform="translate(-616.28 -12.35)" style="fill:#789c4a"/><path d="M723.88,141.36c-13.61,6.72-16.4-7.61-16.4-7.61-4.53-18.61-32-12-32-12-12,2.86-12.23-2.17-12.23-2.17-.63-6.08,6.18-12.82,6.18-12.82-3.84-2.4-9.57,1-9.57,1-8.32,6.19-12.62-1.55-12.62-1.55-3.92-6-9-4.65-9-4.65,1.63,14.11-2.78,22.12-2.78,22.12-5.79,15.37,7.31,19.74,7.31,19.74l-16.88.8s-4.54-3.1-8.32-1.55c0,0-4,3.36,2.27,5.17,0,0,13.61.75,50.14.77,3.76,0-1.52-6.46-18.14-5.29-19-5-12.59-19-12.59-19a55.07,55.07,0,0,0,3.8-15c8.54,10.58,17.48,2.88,17.48,2.88-5,16,5.93,16.77,5.93,16.77,6.79.41,18-1.55,18-1.55,14.5-3.1,19.77,16.54,19.77,16.54,11.09,9.82,22.28,1.81,22.28,1.81" transform="translate(-616.28 -12.35)" style="fill:#789c4a"/><path d="M648.21,120.06a4.53,4.53,0,0,1,4.57.76l-2.95,2.12Z" transform="translate(-616.28 -12.35)" style="fill:#789c4a"/><path d="M761.57,152.07s4.89,9.19-3.66,10c0,0-6.44-.16-4.08-7.52,0,0,2.44-4.6,6.93-13,0,0,9.75-24.82-4.89-41.8,0,0-7.34,10-18.34,2.92,0,0,15.49,4.6,17.52-11.28,0,0-.12-16.72-15.14-13.8,0,0-12.57,1.26-8.49,18,0,0,3.5,6,5.2,6.84,0,0-5.66,11.25-4.77,21.52,0,0,1.19,16.78,10.57,29.32,0,0,5.31,8.13-3.42,8.9,0,0-6.12,0-3.17-7.22,0,0,1.27-2.29-2.38-8.37,0,0-7.74-11.28-6.93-22.15,0,0-8.39,11.72,4.24,25.93,0,0-11.65-5.1-11.51-23.69,0,0,.27-7.68,5.51-9.76,0,0,1.15-12.13,5.53-18a30.16,30.16,0,0,1-3.77-15.88s-1.34-6.89-4.07-.42c0,0-3.34,6.17-4.49-2.93,0,0-.66-7.52,6.8-5.85,0,0,14.55,5.85,16.11-3.76,0,0,3.72-12.73,13-5.85,0,0,4.86,5.5,3.23,8,0,0-2.11,2.37-5.72-2.1,0,0-4.78-2.87,0,4.54a25.2,25.2,0,0,1,6.92,17.13s21.6,13.38,7.34,47.66C765.65,139.53,760.62,149.64,761.57,152.07Z" transform="translate(-616.28 -12.35)" style="fill:#789c4a"/><path d="M744.24,87.52s3.49.15,2.8,3.57a2.64,2.64,0,0,1-2.8,2.16,3.88,3.88,0,0,1-2.85-1.32s-2-1.54-3.55.07a8.91,8.91,0,0,1,2.87-3.64A5,5,0,0,1,744.24,87.52Z" transform="translate(-616.28 -12.35)" style="fill:#789c4a"/><path d="M727.6,147.81c-4.42,1.25-2.15,4.22-2.15,4.22,2.64,2.37,5.36-1.65,5.36-1.65" transform="translate(-616.28 -12.35)" style="fill:#789c4a"/><path d="M754.86,72.13h26.63v45.65l2.43,2.77,3.55,4V66.7h-55.7V12.35H672.25V66.42H617.09V127.3h18.59l2.18-5.71H623.34V72.13H678V18.33h48.12v53.8h22.53S750,63.43,754.86,72.13Z" transform="translate(-616.28 -12.35)" style="fill:#789c4a"/></svg>