<svg xmlns="http://www.w3.org/2000/svg" viewBox="0 0 111.23 197.53"><path d="M694.93,412.15l-44.64.31s-5.79,0-6.42-7.61L642.8,246.07s.06-12.48,13.83-11.87c0,0,11.55.39,12.26,11.68l.5,75.87s0,8.95,8.66,9.18l16.38-.11,0,3.23-16.47.26s-11.45.38-12.11-12.56L665.31,246s-.92-7.79-8.46-8.18c0,0-10.44-.81-10.53,8.16l1.07,159.09s.17,3.82,4.81,4.23L695,409Z" transform="translate(-642.3 -215.9)" style="fill:#789c4a;stroke:#789c4a;stroke-miterlimit:10"/><rect x="669.7" y="402.8" width="25.22" height="3.09" transform="translate(725.1 588.07) rotate(179.6)" style="fill:#789c4a"/><rect x="669.73" y="396.77" width="25.22" height="3.09" transform="translate(725.12 576.02) rotate(179.6)" style="fill:#789c4a"/><rect x="669.61" y="390.82" width="25.22" height="3.09" transform="translate(724.83 564.11) rotate(179.6)" style="fill:#789c4a"/><rect x="669.55" y="384.99" width="25.22" height="3.09" transform="translate(724.66 552.45) rotate(179.6)" style="fill:#789c4a"/><rect x="669.63" y="379.17" width="25.22" height="3.09" transform="translate(724.8 540.8) rotate(179.6)" style="fill:#789c4a"/><rect x="669.57" y="373.14" width="25.22" height="3.09" transform="translate(724.63 528.75) rotate(179.6)" style="fill:#789c4a"/><rect x="669.45" y="367.18" width="25.22" height="3.09" transform="translate(724.34 516.84) rotate(179.6)" style="fill:#789c4a"/><rect x="669.38" y="361.16" width="25.22" height="3.09" transform="translate(724.16 504.79) rotate(179.6)" style="fill:#789c4a"/><rect x="669.45" y="355.26" width="25.22" height="3.09" transform="translate(724.26 492.98) rotate(179.6)" style="fill:#789c4a"/><rect x="669.39" y="349.23" width="25.22" height="3.09" transform="translate(724.09 480.93) rotate(179.6)" style="fill:#789c4a"/><rect x="669.26" y="343.27" width="25.22" height="3.09" transform="translate(723.8 469.02) rotate(179.6)" style="fill:#789c4a"/><rect x="669.2" y="337.25" width="25.22" height="3.09" transform="translate(723.63 456.97) rotate(179.6)" style="fill:#789c4a"/><ellipse cx="13.2" cy="30.54" rx="2.51" ry="2.55" style="fill:#789c4a;stroke:#789c4a;stroke-miterlimit:10"/><path d="M708,267.47s-18.92-2.34-13.55-25.24c0,0,4.59-14.3,20.35-8.24a18.9,18.9,0,0,1,9,12.61s.05-7.84,8.58-11.7c0,0,5.61-2.12,6.81-7,0,0,4.31-9.38,9.54-11.5,0,0,1.77-1.19,2.85.14,0,0,1.44,1.55-.55,3,0,0-4.85,2.12-6.64,10.15a24.29,24.29,0,0,0,5.93,9.45S758.7,250,748.39,260c0,0-4.44,3.42-8.48,4,0,0-3.49,1.94-3.94,11.54l-3.32,33.11-5.19-3.95L725,300.52a131.78,131.78,0,0,0,7.37-33.47s0-3.92-.93-4.91a14.07,14.07,0,0,1-7.28-9.46s-.65,10-8.78,13.47a13.89,13.89,0,0,0,.34,6.08s5.23,27.28,9,34.17l7.49,5.74-4.86,62.7s-2.54,33.51-5.48,38.59c0,0-3.12-24.14-2.63-39,0,0-.48-43.52-3.06-63.34,0,0-2.11-30.6-5.53-39.64C710.68,271.41,710.12,268.27,708,267.47Zm11.78-18.58c-.83-7.43-6.41-12.88-12.45-12.18s-10.27,7.28-9.44,14.7,6.41,12.88,12.45,12.18S720.61,256.31,719.78,248.89Zm29.51,0a10.82,10.82,0,1,0-10.9,10.91A10.9,10.9,0,0,0,749.29,248.93Zm-21.41,80a3.67,3.67,0,1,0-3.7,3.7A3.7,3.7,0,0,0,727.88,329Z" transform="translate(-642.3 -215.9)" style="fill:#789c4a"/></svg>