<svg xmlns="http://www.w3.org/2000/svg" viewBox="0 0 125.83 168.12"><path d="M702.63,412.29c-36.06-.19-64-30-64.7-65.57s27.08-64.31,63.48-65.81l-1.88,2.52s-51.79,8.46-55.17,62.61c0,0-2.21,53.58,57,60,0,0,28.14,2.85,49.59-18.71l6.25,0S744.93,412.27,702.63,412.29Z" transform="translate(-637.92 -266.44)" style="fill:#789c4a"/><rect x="14.91" y="113.84" width="104.46" height="7.06" style="fill:#789c4a"/><rect x="698.46" y="270.47" width="18.96" height="75.14" transform="translate(-623.77 -297.09) rotate(2.51)" style="fill:none;stroke:#789c4a;stroke-miterlimit:10;stroke-width:7px"/><rect x="697.04" y="347.15" width="17.94" height="6.77" transform="translate(-621.92 -296.97) rotate(2.51)" style="fill:none;stroke:#789c4a;stroke-miterlimit:10;stroke-width:3px"/><polygon points="61.7 87.34 74.16 87.89 73.97 91.97 61.5 91.43 61.7 87.34" style="fill:none;stroke:#789c4a;stroke-miterlimit:10;stroke-width:3px"/><polygon points="121.02 165.12 14.76 165.12 21.38 153.33 115.22 153.33 121.02 165.12" style="fill:none;stroke:#789c4a;stroke-miterlimit:10;stroke-width:6px"/><path d="M689.67,407.59c0,.55-7,11.55-7,11.55h5.26l6.43-10.58Z" transform="translate(-637.92 -266.44)" style="fill:#789c4a"/><path d="M721.29,407.8c0,.55,7,11.55,7,11.55H723l-6.42-10.59Z" transform="translate(-637.92 -266.44)" style="fill:#789c4a"/></svg>