<svg xmlns="http://www.w3.org/2000/svg" viewBox="0 0 105.94 180.47"><rect x="20.76" width="6.4" height="180.47" style="fill:#789c4a"/><rect x="668.12" y="260.77" width="6.4" height="47.57" transform="translate(-260.77 695.61) rotate(-90)" style="fill:#789c4a"/><ellipse cx="74.85" cy="21.67" rx="28.09" ry="9.3" style="fill:none;stroke:#789c4a;stroke-miterlimit:10;stroke-width:6px"/><path d="M694.29,281.93v62.7s-1.49,17.49,22.87,21.58h10.05s20.65,0,23.26-21.3v-63" transform="translate(-647.53 -260.27)" style="fill:none;stroke:#789c4a;stroke-miterlimit:10;stroke-width:6px"/><rect x="66.1" y="105.94" width="19.72" height="9.3" style="fill:none;stroke:#789c4a;stroke-miterlimit:10;stroke-width:5px"/><path d="M723.31,376.25s1.86,11.54-5.95,24.19c0,0-11.69,14.39,3,38.07" transform="translate(-647.53 -260.27)" style="fill:none;stroke:#789c4a;stroke-miterlimit:10;stroke-width:5px"/><path d="M750.28,324.72c0-5.14-12.57-9.3-28.09-9.3s-28.09,4.16-28.09,9.3v23.63s5.77,19.72,28.46,18.23c0,0,24.19,2.41,27.91-21.67Z" transform="translate(-647.53 -260.27)" style="fill:#789c4a"/><path d="M746,325.19c0,4.21-10.32,7.63-23,7.63s-23.06-3.42-23.06-7.63" transform="translate(-647.53 -260.27)" style="fill:none;stroke:#fff;stroke-miterlimit:10;stroke-width:4px"/></svg>