<svg xmlns="http://www.w3.org/2000/svg" viewBox="0 0 125.15 177.45"><path d="M168.42,67.66H186c20.62.67,18.29,17.63,18.29,17.63v124C205.64,226,189,225.62,189,225.62H104.55c-20.62-1-19.29-19.29-19.29-19.29v-119c0-19.62,19.62-19.62,19.62-19.62H120.5" transform="translate(-82.24 -51.17)" style="fill:none;stroke:#789c4a;stroke-miterlimit:10;stroke-width:6px"/><rect x="42.6" y="9.51" width="39.56" height="13.97" style="fill:none;stroke:#789c4a;stroke-miterlimit:10;stroke-width:3px"/><path d="M135.47,60s10.31-17,21.29.67" transform="translate(-82.24 -51.17)" style="fill:none;stroke:#789c4a;stroke-miterlimit:10;stroke-width:3px"/><path d="M109.28,101.1a3.82,3.82,0,0,0,.53,1.8,1.88,1.88,0,0,0,1.11.54c.33,0,.66-.33.86-.54l.7-.65,8.37-8.2,5.9-5.71,3.16-2.62a2.2,2.2,0,0,1,1.6-.58c1.31,0,1.31.25,1.31,1.44v2.67c0,1.19-.2,1.19-1.11,2.09l-2.87,3.12-10,10.5-5.34,5.12c-1,1-4.59,4.56-6,4.56l-1-.09a9.91,9.91,0,0,1-2.79-1.64,14.57,14.57,0,0,1-1.64-1.6,2.5,2.5,0,0,1-.37-1.51l-.57-5a28,28,0,0,1-.21-4.92c.17-2.21-.08-1.76,1.36-3.44.53-.66,1.31-1.73,2.17-2a7.36,7.36,0,0,1,2.09-.37,2,2,0,0,1,1.28.41,1.3,1.3,0,0,1,.57,1.31,26.7,26.7,0,0,0,.41,3Z" transform="translate(-82.24 -51.17)" style="fill:#789c4a"/><path d="M109.58,144.22a3.82,3.82,0,0,0,.53,1.8,1.86,1.86,0,0,0,1.11.54c.32,0,.65-.33.86-.54l.69-.65,8.37-8.21,5.91-5.7,3.16-2.62a2.2,2.2,0,0,1,1.6-.58c1.31,0,1.31.25,1.31,1.44v2.66c0,1.19-.21,1.19-1.11,2.1l-2.87,3.11-10,10.5-5.33,5.13c-1,.94-4.59,4.55-6,4.55l-.94-.08a9.64,9.64,0,0,1-2.79-1.64,15.49,15.49,0,0,1-1.64-1.6,2.47,2.47,0,0,1-.37-1.52l-.57-5a28,28,0,0,1-.21-4.92c.17-2.22-.08-1.76,1.36-3.45.53-.65,1.31-1.72,2.17-2a7.64,7.64,0,0,1,2.09-.36,2,2,0,0,1,1.27.41,1.29,1.29,0,0,1,.58,1.31,24.21,24.21,0,0,0,.41,3Z" transform="translate(-82.24 -51.17)" style="fill:#789c4a"/><line x1="59.88" y1="40.77" x2="97.79" y2="40.77" style="fill:none;stroke:#789c4a;stroke-miterlimit:10;stroke-width:3px"/><line x1="59.88" y1="49.91" x2="103.78" y2="49.91" style="fill:none;stroke:#789c4a;stroke-miterlimit:10;stroke-width:3px"/><line x1="59.88" y1="59.22" x2="92.8" y2="59.22" style="fill:none;stroke:#789c4a;stroke-miterlimit:10;stroke-width:3px"/><line x1="59.88" y1="84.94" x2="103.78" y2="84.94" style="fill:none;stroke:#789c4a;stroke-miterlimit:10;stroke-width:3px"/><line x1="59.88" y1="94.08" x2="96.79" y2="94.08" style="fill:none;stroke:#789c4a;stroke-miterlimit:10;stroke-width:3px"/><line x1="59.88" y1="103.39" x2="92.8" y2="103.39" style="fill:none;stroke:#789c4a;stroke-miterlimit:10;stroke-width:3px"/><path d="M109.91,189.42a3.83,3.83,0,0,0,.54,1.81,1.82,1.82,0,0,0,1.1.53c.33,0,.66-.33.86-.53l.7-.66,8.37-8.2,5.91-5.7,3.15-2.63a2.21,2.21,0,0,1,1.6-.57c1.32,0,1.32.25,1.32,1.44v2.66c0,1.19-.21,1.19-1.11,2.09l-2.87,3.12-10,10.5-5.33,5.13c-1,.94-4.6,4.55-6,4.55l-.94-.08a9.64,9.64,0,0,1-2.79-1.64,14.59,14.59,0,0,1-1.64-1.6,2.47,2.47,0,0,1-.37-1.52l-.58-5a29,29,0,0,1-.2-4.92c.16-2.22-.08-1.77,1.35-3.45.53-.66,1.31-1.72,2.18-2a7.59,7.59,0,0,1,2.09-.37,2.09,2.09,0,0,1,1.27.41,1.31,1.31,0,0,1,.57,1.31,26.1,26.1,0,0,0,.41,3Z" transform="translate(-82.24 -51.17)" style="fill:#789c4a"/><line x1="60.52" y1="129.09" x2="98.43" y2="129.09" style="fill:none;stroke:#789c4a;stroke-miterlimit:10;stroke-width:3px"/><line x1="60.52" y1="138.24" x2="104.41" y2="138.24" style="fill:none;stroke:#789c4a;stroke-miterlimit:10;stroke-width:3px"/><line x1="60.52" y1="147.55" x2="93.44" y2="147.55" style="fill:none;stroke:#789c4a;stroke-miterlimit:10;stroke-width:3px"/></svg>