<svg id="Layer_1" data-name="Layer 1" xmlns="http://www.w3.org/2000/svg" viewBox="0 0 302.55 181.87"><path d="M621.46,482.69s-14.68,0-14.15,13.63v43S603.5,576.89,641.1,577c0,0,34.84,3.67,36.94-36.68V494.22s-1-13.1-14.67-13.1" transform="translate(-549.23 -469.33)" style="fill:none;stroke:#789c4a;stroke-miterlimit:10;stroke-width:6px"/><ellipse cx="73.14" cy="12.83" rx="4.19" ry="9.43" style="fill:#789c4a"/><ellipse cx="113.07" cy="12.19" rx="4.19" ry="9.43" style="fill:#789c4a"/><polygon points="78.64 107.16 93.19 118.95 107.33 107.16 78.64 107.16" style="fill:none;stroke:#789c4a;stroke-miterlimit:10;stroke-width:3px"/><path d="M643.59,587.89s10.22,22.8,2.36,36.55c0,0-9.9,27.34-44.41,24,0,0-25.16-.79-36.56-29.87,0,0-10.61-24.37,6.69-46.38,0,0,16.5-19.26-5.9-44.41" transform="translate(-549.23 -469.33)" style="fill:none;stroke:#789c4a;stroke-miterlimit:10;stroke-width:5px"/><circle cx="12.02" cy="51.15" r="10.02" style="fill:none;stroke:#789c4a;stroke-miterlimit:10;stroke-width:4px"/><circle cx="12.22" cy="50.96" r="3.54" style="fill:#789c4a"/><path d="M812.8,485.83h17.61c20.61.66,18.28,17.62,18.28,17.62v124c1.33,16.63-15.29,16.29-15.29,16.29H748.93c-20.62-1-19.28-19.28-19.28-19.28v-119c0-19.62,19.62-19.63,19.62-19.63h15.61" transform="translate(-549.23 -469.33)" style="fill:none;stroke:#789c4a;stroke-miterlimit:10;stroke-width:6px"/><rect x="220" y="9.51" width="39.56" height="13.97" style="fill:none;stroke:#789c4a;stroke-miterlimit:10;stroke-width:3px"/><path d="M779.86,478.18s10.31-17,21.28.66" transform="translate(-549.23 -469.33)" style="fill:none;stroke:#789c4a;stroke-miterlimit:10;stroke-width:3px"/><path d="M753.66,519.26a4,4,0,0,0,.54,1.81,1.84,1.84,0,0,0,1.1.53c.33,0,.66-.33.87-.53l.69-.66,8.37-8.2,5.91-5.7,3.15-2.63a2.22,2.22,0,0,1,1.6-.57c1.32,0,1.32.25,1.32,1.44v2.66c0,1.19-.21,1.19-1.11,2.09l-2.87,3.12-10,10.5-5.33,5.13c-1,.94-4.59,4.55-6,4.55l-.94-.08a9.64,9.64,0,0,1-2.79-1.64,15.49,15.49,0,0,1-1.64-1.6,2.47,2.47,0,0,1-.37-1.52l-.58-5a29,29,0,0,1-.2-4.92c.16-2.22-.08-1.77,1.35-3.45.54-.66,1.32-1.72,2.18-2a7.59,7.59,0,0,1,2.09-.37,2.09,2.09,0,0,1,1.27.41,1.31,1.31,0,0,1,.57,1.31,26.1,26.1,0,0,0,.41,3Z" transform="translate(-549.23 -469.33)" style="fill:#789c4a"/><path d="M754,562.38a3.82,3.82,0,0,0,.53,1.81,1.93,1.93,0,0,0,1.11.53c.33,0,.66-.33.86-.53l.7-.66,8.37-8.2,5.9-5.7,3.16-2.63a2.19,2.19,0,0,1,1.6-.57c1.31,0,1.31.24,1.31,1.43v2.67c0,1.19-.2,1.19-1.1,2.09l-2.87,3.12-10,10.5-5.33,5.13c-1,.94-4.6,4.55-6,4.55l-1-.08a9.72,9.72,0,0,1-2.78-1.64,16.64,16.64,0,0,1-1.65-1.6,2.53,2.53,0,0,1-.36-1.52l-.58-5a28.06,28.06,0,0,1-.2-4.93c.16-2.21-.09-1.76,1.35-3.44.53-.66,1.31-1.72,2.17-2a7.37,7.37,0,0,1,2.1-.37,2,2,0,0,1,1.27.41,1.31,1.31,0,0,1,.57,1.31,26.4,26.4,0,0,0,.41,3Z" transform="translate(-549.23 -469.33)" style="fill:#789c4a"/><line x1="237.28" y1="40.77" x2="275.19" y2="40.77" style="fill:none;stroke:#789c4a;stroke-miterlimit:10;stroke-width:3px"/><line x1="237.28" y1="49.91" x2="281.18" y2="49.91" style="fill:none;stroke:#789c4a;stroke-miterlimit:10;stroke-width:3px"/><line x1="237.28" y1="59.22" x2="270.2" y2="59.22" style="fill:none;stroke:#789c4a;stroke-miterlimit:10;stroke-width:3px"/><line x1="237.28" y1="84.94" x2="281.18" y2="84.94" style="fill:none;stroke:#789c4a;stroke-miterlimit:10;stroke-width:3px"/><line x1="237.28" y1="94.08" x2="274.2" y2="94.08" style="fill:none;stroke:#789c4a;stroke-miterlimit:10;stroke-width:3px"/><line x1="237.28" y1="103.39" x2="270.2" y2="103.39" style="fill:none;stroke:#789c4a;stroke-miterlimit:10;stroke-width:3px"/><path d="M754.3,607.59a3.82,3.82,0,0,0,.53,1.8,1.88,1.88,0,0,0,1.11.54c.33,0,.65-.33.86-.54l.7-.65,8.36-8.2,5.91-5.71,3.16-2.62a2.2,2.2,0,0,1,1.6-.58c1.31,0,1.31.25,1.31,1.44v2.67c0,1.19-.2,1.19-1.11,2.09L773.86,601l-10,10.5-5.33,5.12c-1,.95-4.59,4.56-6,4.56l-.94-.09a9.91,9.91,0,0,1-2.79-1.64,14.57,14.57,0,0,1-1.64-1.6,2.44,2.44,0,0,1-.37-1.51l-.57-5a28,28,0,0,1-.21-4.92c.17-2.21-.08-1.76,1.36-3.44.53-.66,1.31-1.73,2.17-2a7.3,7.3,0,0,1,2.09-.37,2,2,0,0,1,1.27.41,1.29,1.29,0,0,1,.58,1.31,26.7,26.7,0,0,0,.41,3Z" transform="translate(-549.23 -469.33)" style="fill:#789c4a"/><line x1="237.92" y1="129.09" x2="275.83" y2="129.09" style="fill:none;stroke:#789c4a;stroke-miterlimit:10;stroke-width:3px"/><line x1="237.92" y1="138.24" x2="281.81" y2="138.24" style="fill:none;stroke:#789c4a;stroke-miterlimit:10;stroke-width:3px"/><line x1="237.92" y1="147.55" x2="270.84" y2="147.55" style="fill:none;stroke:#789c4a;stroke-miterlimit:10;stroke-width:3px"/></svg>